<?xml version="1.0" encoding="utf-8"?>
<!-- Generator: Adobe Illustrator 19.0.0, SVG Export Plug-In . SVG Version: 6.00 Build 0)  -->
<svg version="1.1" xmlns="http://www.w3.org/2000/svg" xmlns:xlink="http://www.w3.org/1999/xlink" x="0px" y="0px"
	 viewBox="0 0 3000 3000" style="enable-background:new 0 0 3000 3000;" xml:space="preserve">
<style type="text/css">
	.st0{fill-rule:evenodd;clip-rule:evenodd;fill:#22E2F8;}
	.st1{fill-rule:evenodd;clip-rule:evenodd;fill:url(#XMLID_2_);}
	.st2{fill:none;}
	.st3{fill:url(#XMLID_5_);}
	.st4{fill:url(#XMLID_12_);}
	.st5{opacity:0.2;}
	.st6{fill:#43F4F8;}
	.st7{fill-rule:evenodd;clip-rule:evenodd;fill:url(#XMLID_13_);}
</style>
<g id="MAIN">
	<path id="XMLID_10_" class="st0" d="M1500,2751.1L557.3,2207l0-1958.1l715.4,413v283.9l-257.3-148.9v1014.4l-361.5,264.4l396.7-161
		l449.3,259.3l449.3-259.3l396.7,161l-361.5-264.4V796.9l-257.3,148.9V661.9l715.4-413l0,1958.1L1500,2751.1 M1727.3,1068.6
		l186.8-107.7v850.5L1500,2051.3l-414-239.9V960.9l186.8,107.7v681.8l227.1,131l227.3-131V1068.6z"/>
	<g id="GRAD_0">
		<linearGradient id="XMLID_2_" gradientUnits="userSpaceOnUse" x1="557.3439" y1="1500" x2="2442.6563" y2="1500">
			<stop  offset="0" style="stop-color:#1EAFC0"/>
			<stop  offset="0.1878" style="stop-color:#1EAFC0;stop-opacity:0"/>
		</linearGradient>
		<path id="XMLID_32_" class="st1" d="M1500,2751.1L557.3,2207l0-1958.1l715.4,413v283.9l-257.3-148.9v1014.4l-361.5,264.4
			l396.7-161l449.3,259.3l449.3-259.3l396.7,161l-361.5-264.4V796.9l-257.3,148.9V661.9l715.4-413l0,1958.1L1500,2751.1
			 M1727.3,1068.6l186.8-107.7v850.5L1500,2051.3l-414-239.9V960.9l186.8,107.7v681.8l227.1,131l227.3-131V1068.6z"/>
	</g>
	<g id="XMLID_6_">
		<polygon id="XMLID_7_" class="st2" points="2442.7,248.9 1727.2,661.9 1727.2,945.8 1984.5,796.9 1984.5,1549.4 2442.7,1549.4 		
			"/>
		<path id="XMLID_8_" class="st2" d="M1015.5,1479.7V796.9l257.3,148.9V661.9l-715.4-413l0,878.4
			C663.4,1239.1,834.6,1389.7,1015.5,1479.7z"/>
		<path id="XMLID_78_" class="st2" d="M1086,1511.4c62.7,25,125.8,41.3,186.8,45v-487.7L1086,960.9V1511.4z"/>
		<polygon id="XMLID_98_" class="st2" points="1497.5,2749.6 1500,2751.1 1502.5,2749.6 		"/>
		<polygon id="XMLID_104_" class="st2" points="1914.1,960.9 1727.3,1068.6 1727.3,1549.4 1914.1,1549.4 		"/>
		<linearGradient id="XMLID_5_" gradientUnits="userSpaceOnUse" x1="448.5555" y1="1938.4851" x2="2773" y2="1938.4851">
			<stop  offset="0" style="stop-color:#0F7589"/>
			<stop  offset="0.7411" style="stop-color:#24C7D8"/>
			<stop  offset="0.9051" style="stop-color:#2EEDFC"/>
		</linearGradient>
		<path id="XMLID_105_" class="st3" d="M2442.7,2207l0-657.6h-458.2v262l361.5,264.4l-396.7-161L1500,2174.2l-449.3-259.3
			l-396.7,161l361.5-264.4v-331.7c-180.9-90-352.2-240.6-458.2-352.4l0,1079.6l940.1,542.7l5.1,0L2442.7,2207z"/>
		<linearGradient id="XMLID_12_" gradientUnits="userSpaceOnUse" x1="448.5555" y1="1781.3652" x2="2773" y2="1781.3652">
			<stop  offset="0" style="stop-color:#0F7589"/>
			<stop  offset="0.7411" style="stop-color:#24C7D8"/>
			<stop  offset="0.9051" style="stop-color:#2EEDFC"/>
		</linearGradient>
		<path id="XMLID_106_" class="st4" d="M1086,1811.4l414,239.9l414.1-239.9v-262h-186.8v201.1l-227.3,131l-227.1-131v-194.1
			c-61.1-3.6-124.1-20-186.8-45V1811.4z"/>
	</g>
</g>
<g id="OUTLINE">
	<g id="XMLID_9_">
		<g id="XMLID_30_">
			<g id="XMLID_58_" class="st5">
				<path id="XMLID_59_" class="st6" d="M1880.1,1018.8v772L1500,2011l-380-220.2v-772l118.8,68.5v662.2v19.6l17,9.8l227.1,131
					l17,9.8l17-9.8l227.3-131l17-9.8v-19.6v-662.2L1880.1,1018.8 M1914.1,959.9l-186.8,107.7v681.8l-227.3,131l-227.1-131v-681.8
					L1086,959.9v850.5l414,239.9l414.1-239.9V959.9L1914.1,959.9z"/>
			</g>
		</g>
		<g id="XMLID_34_">
			<g id="XMLID_62_" class="st5">
				<path id="XMLID_63_" class="st6" d="M2408.7,306.8l0,1771.7l-42.6-31.2l-347.5-254.2V795.9v-59l-51,29.5l-206.2,119.4V680.5
					L2408.7,306.8 M591.3,306.8l647.4,373.7v205.4l-206.2-119.4l-51-29.5v59v997.2L634,2047.4l-42.6,31.2L591.3,306.8
					 M1951.9,1951.6l381.3,154.7l75.5,30.6v49.4L1500,2710.8l-908.7-524.5l0-49.4l75.5-30.6l381.3-154.7l434.9,251l17,9.8l17-9.8
					L1951.9,1951.6 M2442.7,247.9l-715.4,413v283.9l257.3-148.9v1014.4l361.5,264.4l-396.7-161L1500,2173.2l-449.3-259.3l-396.7,161
					l361.5-264.4V795.9l257.3,148.9V660.9l-715.4-413l0,1958.1l942.7,544.1l942.7-544.1L2442.7,247.9L2442.7,247.9z"/>
			</g>
		</g>
	</g>
</g>
<g id="GRAD_1">
	<g id="XMLID_31_">
		<g id="XMLID_85_">
			<linearGradient id="XMLID_13_" gradientUnits="userSpaceOnUse" x1="1500" y1="2751.0938" x2="1500" y2="248.9063">
				<stop  offset="0.1168" style="stop-color:#000000"/>
				<stop  offset="0.1777" style="stop-color:#0A0A0A;stop-opacity:0.8477"/>
				<stop  offset="1" style="stop-color:#FFFFFF;stop-opacity:0"/>
			</linearGradient>
			<path id="XMLID_90_" class="st7" d="M1500,2751.1L557.3,2207l0-1958.1l715.4,413v283.9l-257.3-148.9v1014.4l-361.5,264.4
				l396.7-161l449.3,259.3l449.3-259.3l396.7,161l-361.5-264.4V796.9l-257.3,148.9V661.9l715.4-413l0,1958.1L1500,2751.1
				 M1727.3,1068.6l186.8-107.7v850.5L1500,2051.3l-414-239.9V960.9l186.8,107.7v681.8l227.1,131l227.3-131V1068.6z"/>
		</g>
	</g>
</g>
</svg>
